<svg xmlns="http://www.w3.org/2000/svg" xmlns:xlink="http://www.w3.org/1999/xlink" width="400" zoomAndPan="magnify" viewBox="0 0 300 74.999997" height="100" preserveAspectRatio="xMidYMid meet" version="1.0"><defs><g/></defs><g fill="#f3f0f8" fill-opacity="1"><g transform="translate(39.474542, 43.499995)"><g><path d="M 40.546875 -27.324219 C 40.269531 -27.371094 40.097656 -27.273438 39.921875 -27.074219 C 39.496094 -26.648438 39.070312 -26.222656 38.695312 -25.773438 C 35.046875 -21.546875 32.070312 -16.875 29.320312 -12.046875 C 28.796875 -11.125 28.398438 -10.097656 27.796875 -9.222656 C 25.671875 -6.175781 23.347656 -3.226562 20.824219 -0.476562 C 19.347656 1.148438 17.796875 2.675781 15.921875 3.824219 C 15.273438 4.222656 14.597656 4.550781 13.875 4.699219 C 12.898438 4.925781 12.324219 4.675781 11.824219 3.773438 C 11.597656 3.398438 11.472656 2.949219 11.375 2.523438 C 11 0.675781 11.148438 -1.125 11.523438 -2.949219 C 12.398438 -6.972656 13.921875 -10.800781 15.625 -14.546875 C 17.25 -18.148438 19.171875 -21.574219 20.972656 -25.074219 C 21.546875 -26.199219 22.074219 -27.347656 22.324219 -28.597656 C 22.523438 -29.671875 22.148438 -30.222656 21.074219 -30.371094 C 20.347656 -30.472656 19.699219 -30.246094 19.074219 -29.972656 C 15.648438 -28.523438 12.398438 -26.746094 9.425781 -24.472656 C 6.75 -22.449219 4.425781 -20.097656 2.824219 -17.125 C 1.375 -14.398438 0.773438 -11.523438 1.699219 -8.5 C 2.226562 -6.75 3.050781 -5.273438 4.75 -4.398438 C 6.300781 -3.601562 7.898438 -3.773438 9.050781 -4.875 C 9.125 -4.925781 9.25 -4.972656 9.222656 -5.097656 C 9.175781 -5.222656 9.050781 -5.25 8.949219 -5.273438 C 8.675781 -5.324219 8.5 -5.125 8.300781 -5.023438 C 6.824219 -4.148438 5.472656 -4.324219 4.300781 -5.625 C 4 -5.949219 3.726562 -6.324219 3.5 -6.75 C 2.601562 -8.550781 2.300781 -10.449219 2.550781 -12.421875 C 2.851562 -14.921875 3.925781 -17.097656 5.425781 -19.046875 C 9.222656 -23.949219 14.296875 -27.074219 19.972656 -29.371094 C 20.246094 -29.472656 20.648438 -29.722656 20.847656 -29.546875 C 21.074219 -29.320312 20.847656 -28.921875 20.746094 -28.597656 C 20.246094 -27.121094 19.5 -25.773438 18.75 -24.421875 C 16.074219 -19.648438 13.574219 -14.824219 11.75 -9.675781 C 10.722656 -6.75 9.824219 -3.800781 9.75 -0.675781 C 9.722656 0.648438 9.824219 1.976562 10.375 3.226562 C 11.023438 4.675781 12.273438 5.449219 13.847656 5.375 C 14.699219 5.347656 15.472656 5.074219 16.222656 4.675781 C 17.222656 4.125 18.097656 3.425781 18.921875 2.648438 C 20.898438 0.800781 22.574219 -1.300781 24.222656 -3.398438 C 24.996094 -4.398438 25.746094 -5.398438 26.523438 -6.425781 C 26.546875 -6.398438 26.574219 -6.375 26.597656 -6.347656 C 26.546875 -6.199219 26.496094 -6.050781 26.421875 -5.898438 C 25.921875 -4.574219 25.449219 -3.25 25.023438 -1.898438 C 23.972656 1.648438 23.222656 5.25 23.273438 8.972656 C 23.296875 9.800781 23.371094 10.597656 23.671875 11.375 C 24.222656 12.796875 25.324219 13.472656 26.699219 13.25 C 27.421875 13.148438 27.945312 12.722656 28.445312 12.25 C 30.097656 10.699219 31.148438 8.800781 31.597656 6.574219 C 31.695312 6 31.847656 5.449219 31.871094 4.898438 C 31.871094 4.425781 31.496094 4.125 31.097656 4.25 C 30.972656 4.300781 30.796875 4.375 30.945312 4.523438 C 31.171875 4.722656 31.046875 4.949219 31.023438 5.175781 C 30.847656 6.074219 30.546875 6.972656 30.273438 7.847656 C 29.695312 9.523438 28.648438 10.875 27.347656 12.046875 C 27.046875 12.324219 26.699219 12.523438 26.296875 12.671875 C 25.898438 12.824219 25.648438 12.722656 25.449219 12.375 C 25.148438 11.824219 25.023438 11.25 24.996094 10.648438 C 24.847656 8.324219 25.222656 6.023438 25.648438 3.75 C 26.597656 -1.476562 28.523438 -6.347656 30.972656 -11.050781 C 33.796875 -16.523438 37.144531 -21.671875 40.847656 -26.597656 C 41.195312 -27.046875 41.097656 -27.246094 40.546875 -27.324219 Z M 40.546875 -27.324219 "/></g></g></g><g fill="#f3f0f8" fill-opacity="1"><g transform="translate(73.019232, 43.499995)"><g><path d="M 6.472656 -15.546875 C 8.175781 -18.421875 9.949219 -21.222656 11.773438 -24.023438 C 12.074219 -24.472656 12.421875 -24.921875 12.648438 -25.449219 C 12.796875 -25.796875 12.648438 -25.996094 12.273438 -25.972656 C 12.074219 -25.972656 11.949219 -25.847656 11.847656 -25.699219 C 11.472656 -25.246094 11.097656 -24.773438 10.722656 -24.296875 C 9.75 -23.023438 8.925781 -21.648438 8.050781 -20.296875 C 6.675781 -18.199219 5.398438 -16.023438 4.175781 -13.824219 C 2.550781 -10.925781 1.074219 -7.949219 -0.199219 -4.847656 C -1 -2.898438 -1.773438 -0.949219 -2.449219 1.050781 C -2.601562 1.550781 -2.875 1.925781 -3.273438 2.273438 C -4 2.875 -4.648438 3.550781 -5.175781 4.375 C -5.574219 5.023438 -5.972656 5.722656 -6.023438 6.5 C -6.097656 7.597656 -5.523438 8.449219 -4.324219 8.597656 C -3.375 8.699219 -2.523438 8.472656 -1.699219 8.023438 C -0.398438 7.324219 0.601562 6.273438 1.476562 5.097656 C 3.023438 3 4.222656 0.699219 5.175781 -1.726562 C 5.273438 -2 5.398438 -2.175781 5.699219 -2.273438 C 7.175781 -2.824219 8.699219 -3.300781 10.222656 -3.699219 C 10.800781 -3.851562 11.375 -4 11.972656 -4.175781 C 11.824219 -4.425781 11.597656 -4.449219 11.398438 -4.449219 C 11.222656 -4.449219 11.050781 -4.425781 10.875 -4.398438 C 9.75 -4.148438 8.625 -3.851562 7.5 -3.550781 C 6.875 -3.375 6.273438 -3.199219 5.625 -3.023438 C 5.574219 -3.273438 5.675781 -3.449219 5.722656 -3.648438 C 5.824219 -4.25 5.847656 -4.847656 5.625 -5.425781 C 5.5 -5.773438 5.300781 -6.050781 4.949219 -6.199219 C 4.25 -6.472656 3.550781 -6.472656 2.898438 -6.050781 C 2.300781 -5.648438 1.75 -5.175781 1.273438 -4.648438 C 1.148438 -4.523438 1.050781 -4.347656 0.773438 -4.300781 C 1 -4.875 1.226562 -5.398438 1.449219 -5.925781 C 2.976562 -9.199219 4.648438 -12.421875 6.472656 -15.546875 Z M 3.476562 -0.875 C 2.550781 1.375 1.425781 3.550781 -0.101562 5.449219 C -0.925781 6.472656 -1.875 7.347656 -3.101562 7.898438 C -3.449219 8.050781 -3.800781 8.175781 -4.199219 8.175781 C -4.574219 8.148438 -4.824219 8 -5 7.675781 C -5.222656 7.222656 -5.300781 6.75 -5.148438 6.273438 C -4.773438 5 -3.972656 4.023438 -3.074219 3.101562 C -2.925781 2.976562 -2.800781 3.023438 -2.648438 3.074219 C -2.101562 3.175781 -1.976562 3.125 -1.75 2.625 C -1.699219 2.5 -1.625 2.398438 -1.601562 2.300781 C -1.550781 1.699219 -1.101562 1.375 -0.648438 1.074219 C 0.601562 0.199219 1.898438 -0.523438 3.25 -1.199219 C 3.351562 -1.25 3.425781 -1.300781 3.523438 -1.25 C 3.625 -1.125 3.523438 -1 3.476562 -0.875 Z M 2.425781 -4.523438 C 2.875 -4.949219 3.351562 -5.300781 3.875 -5.574219 C 4.125 -5.699219 4.25 -5.625 4.300781 -5.398438 C 4.375 -5.074219 4.398438 -4.773438 4.398438 -4.472656 C 4.375 -3.875 4.222656 -3.273438 4.097656 -2.699219 C 4.023438 -2.375 3.824219 -2.199219 3.550781 -2.074219 C 2.300781 -1.523438 1.101562 -0.851562 -0.0742188 -0.148438 C -0.324219 0 -0.523438 0.226562 -0.800781 0.273438 C -0.875 0.125 -0.824219 0.0234375 -0.773438 -0.0742188 C 0.125 -1.675781 1.074219 -3.25 2.425781 -4.523438 Z M 2.425781 -4.523438 "/></g></g></g><g fill="#f3f0f8" fill-opacity="1"><g transform="translate(84.367432, 43.499995)"><g><path d="M 1.75 -0.800781 C 1.800781 -0.273438 1.875 0.25 2.125 0.726562 C 2.976562 2.324219 4.675781 2.675781 6.097656 2.074219 C 8.972656 0.851562 14.375 -3.875 17.472656 -4.25 C 17.449219 -4.347656 17.449219 -4.398438 17.421875 -4.425781 C 16.574219 -5.375 8.898438 -0.101562 6.375 1.125 C 5.722656 1.449219 5.074219 1.726562 4.324219 1.726562 C 3.949219 1.699219 3.699219 1.550781 3.550781 1.199219 C 3.398438 0.851562 3.324219 0.476562 3.324219 0.0742188 C 3.300781 -0.824219 3.476562 -1.675781 3.824219 -2.523438 C 4.097656 -3.226562 4.523438 -3.851562 4.898438 -4.5 C 5.175781 -5.023438 5.125 -5.199219 4.597656 -5.449219 C 4.449219 -5.523438 4.300781 -5.625 4.148438 -5.574219 C 3.875 -5.472656 3.726562 -5.625 3.523438 -5.75 C 2.773438 -6.175781 2.023438 -6.273438 1.273438 -5.800781 C -0.523438 -4.675781 -1.351562 -2.976562 -1.300781 -0.898438 C -1.300781 -0.199219 -0.5 0.199219 0.148438 -0.101562 C 0.398438 -0.226562 0.625 -0.398438 0.800781 -0.601562 C 1.074219 -0.851562 1.351562 -1.125 1.648438 -1.425781 C 1.75 -1.175781 1.726562 -0.976562 1.75 -0.800781 Z M 0.351562 -1.101562 C 0.175781 -0.949219 -0.0234375 -0.824219 -0.300781 -0.625 C -0.300781 -1.175781 -0.199219 -1.574219 -0.0507812 -1.925781 C 0.398438 -3.074219 1.050781 -4.050781 2 -4.847656 C 2.175781 -5 2.398438 -5.097656 2.601562 -5.222656 C 2.726562 -5.300781 2.898438 -5.324219 3 -5.148438 C 3.101562 -5 3.199219 -4.875 3.074219 -4.675781 C 2.273438 -3.398438 1.5 -2.101562 0.351562 -1.101562 Z M 0.351562 -1.101562 "/></g></g></g><g fill="#f3f0f8" fill-opacity="1"><g transform="translate(101.239765, 43.499995)"><g><path d="M 2 -6.023438 C 1.675781 -6.300781 1.398438 -6.300781 1.074219 -6 C 0.949219 -5.875 0.824219 -5.75 0.699219 -5.625 C -0.824219 -3.574219 -2.023438 -1.398438 -2.273438 1.199219 C -2.375 1.875 -2.351562 2.550781 -2.199219 3.226562 C -2.074219 3.75 -1.851562 4.273438 -1.5 4.722656 C -0.800781 5.550781 -0.0234375 5.648438 0.875 5.074219 C 1.023438 4.972656 1.175781 4.824219 1.324219 4.699219 C 2.601562 3.625 3.726562 2.398438 4.875 1.199219 C 6.273438 -0.273438 7.800781 -1.523438 9.648438 -2.425781 C 10.699219 -2.925781 11.699219 -3.476562 12.796875 -3.875 C 12.898438 -3.898438 13 -3.925781 12.972656 -4.050781 C 12.972656 -4.148438 12.875 -4.199219 12.773438 -4.199219 C 12.574219 -4.222656 12.421875 -4.148438 12.273438 -4.074219 C 11.699219 -3.824219 11.125 -3.574219 10.574219 -3.300781 C 9.472656 -2.773438 8.324219 -2.300781 7.273438 -1.625 C 5.75 -0.699219 4.449219 0.523438 3.226562 1.824219 C 2.523438 2.523438 1.898438 3.300781 1.074219 3.851562 C 0.601562 4.175781 0.148438 4.5 -0.449219 4.523438 C -0.898438 4.550781 -1.023438 4.449219 -1.125 4.023438 C -1.25 3.5 -1.25 2.976562 -1.199219 2.449219 C -1 0.5 -0.25 -1.273438 0.75 -2.949219 C 1.199219 -3.699219 1.675781 -4.375 2.125 -5.097656 C 2.351562 -5.472656 2.300781 -5.773438 2 -6.023438 Z M 3.148438 -7.25 C 3.375 -7.175781 3.523438 -7.324219 3.5 -7.550781 C 3.5 -7.925781 3.074219 -8.300781 2.648438 -8.347656 C 2.425781 -8.375 2.300781 -8.222656 2.375 -8 C 2.5 -7.625 2.800781 -7.375 3.148438 -7.25 Z M 3.148438 -7.25 "/></g></g></g><g fill="#f3f0f8" fill-opacity="1"><g transform="translate(113.862768, 43.499995)"><g><path d="M 0.25 0.476562 C 0.425781 0.324219 0.625 0.199219 0.800781 0.0234375 C 1.351562 -0.476562 1.898438 -1 2.476562 -1.476562 C 2.800781 -1.75 3.074219 -2.101562 3.476562 -2.324219 C 3.5 -2.273438 3.523438 -2.226562 3.523438 -2.199219 C 3.449219 -1.875 3.375 -1.523438 3.273438 -1.175781 C 2.824219 0.574219 2.601562 2.351562 2.699219 4.148438 C 2.773438 5.125 2.949219 6.050781 3.449219 6.898438 C 3.972656 7.824219 4.722656 8.425781 5.824219 8.550781 C 6.972656 8.722656 8.023438 8.449219 8.949219 7.773438 C 9.699219 7.222656 10.375 6.574219 11 5.875 C 12.398438 4.300781 13.824219 2.726562 15.296875 1.199219 C 17.472656 -1.050781 19.847656 -3 22.824219 -4.199219 C 22.949219 -4.222656 23.074219 -4.273438 23.171875 -4.449219 C 22.949219 -4.648438 22.746094 -4.574219 22.546875 -4.5 C 20.273438 -3.800781 18.398438 -2.550781 16.75 -0.949219 C 15.222656 0.550781 13.722656 2.050781 12.296875 3.625 C 11.273438 4.722656 10.222656 5.824219 9.050781 6.773438 C 8.375 7.347656 7.625 7.75 6.75 7.949219 C 6.125 8.097656 5.648438 7.925781 5.300781 7.449219 C 5.074219 7.148438 4.898438 6.824219 4.75 6.472656 C 4.425781 5.625 4.347656 4.75 4.300781 3.851562 C 4.175781 1.175781 4.875 -1.351562 5.597656 -3.898438 C 5.675781 -4.175781 5.875 -4.199219 6.097656 -4.175781 C 7.222656 -4.050781 8.273438 -4.300781 9.300781 -4.625 C 10.972656 -5.175781 12.523438 -5.972656 14.023438 -6.898438 C 15.824219 -8.050781 17.472656 -9.375 19.023438 -10.847656 C 20.746094 -12.523438 22.371094 -14.273438 23.671875 -16.273438 C 24.347656 -17.296875 24.921875 -18.375 25.199219 -19.574219 C 25.421875 -20.449219 25.472656 -21.347656 25.273438 -22.246094 C 25.148438 -22.972656 24.746094 -23.546875 24.074219 -23.921875 C 22.796875 -24.597656 21.496094 -24.574219 20.171875 -24.097656 C 18.898438 -23.648438 17.75 -22.972656 16.648438 -22.199219 C 14.875 -20.949219 13.347656 -19.421875 11.847656 -17.875 C 9.199219 -15.097656 7.25 -11.921875 5.75 -8.449219 C 5.398438 -7.648438 5.074219 -6.824219 4.773438 -6 C 4.648438 -5.675781 4.625 -5.675781 4.300781 -5.847656 C 4 -6.050781 3.699219 -6.148438 3.351562 -6.199219 C 2.226562 -6.375 1.324219 -5.949219 0.550781 -5.222656 C -0.25 -4.449219 -0.851562 -3.550781 -1.300781 -2.574219 C -1.648438 -1.851562 -1.898438 -1.074219 -1.851562 -0.25 C -1.824219 0.375 -1.574219 0.675781 -0.925781 0.75 C -0.5 0.824219 -0.101562 0.75 0.25 0.476562 Z M 6.023438 -5.175781 C 7.097656 -8.097656 8.425781 -10.875 10.175781 -13.472656 C 12.074219 -16.324219 14.324219 -18.898438 17 -21.097656 C 17.949219 -21.898438 18.949219 -22.597656 20.046875 -23.171875 C 20.648438 -23.472656 21.273438 -23.746094 21.972656 -23.847656 C 22.871094 -23.972656 23.621094 -23.574219 23.949219 -22.746094 C 24.199219 -22.171875 24.246094 -21.574219 24.246094 -20.972656 C 24.246094 -19.648438 23.796875 -18.449219 23.171875 -17.273438 C 22.148438 -15.375 20.824219 -13.699219 19.296875 -12.148438 C 17.949219 -10.75 16.5 -9.449219 14.875 -8.324219 C 13 -7 11.023438 -5.875 8.824219 -5.125 C 8.050781 -4.847656 7.273438 -4.625 6.449219 -4.597656 C 5.847656 -4.574219 5.824219 -4.625 6.023438 -5.175781 Z M -0.800781 -0.199219 C -0.773438 -0.75 -0.601562 -1.273438 -0.398438 -1.773438 C 0.148438 -3.050781 0.925781 -4.148438 2.050781 -5.023438 C 2.324219 -5.222656 2.625 -5.375 2.949219 -5.472656 C 3.324219 -5.597656 3.398438 -5.574219 3.648438 -5.25 C 3.875 -4.972656 3.949219 -4.625 4.023438 -4.273438 C 4.074219 -4.125 4 -4.023438 3.875 -3.949219 C 2.550781 -2.824219 1.375 -1.550781 0.0742188 -0.398438 C -0.0742188 -0.273438 -0.25 -0.148438 -0.398438 -0.0234375 C -0.5 0.0507812 -0.601562 0.175781 -0.726562 0.101562 C -0.851562 0.0507812 -0.800781 -0.101562 -0.800781 -0.199219 Z M -0.800781 -0.199219 "/></g></g></g><g fill="#f3f0f8" fill-opacity="1"><g transform="translate(136.409195, 43.499995)"><g/></g></g><g fill="#f3f0f8" fill-opacity="1"><g transform="translate(146.407611, 43.499995)"><g><path d="M 5.472656 1.425781 C 7.824219 4.050781 10.75 5.5 14.273438 5.597656 C 18.25 5.675781 21.546875 4.097656 24.199219 1.125 C 26.496094 -1.5 28.097656 -4.550781 29.472656 -7.722656 C 30.597656 -10.324219 31.421875 -13.046875 32.398438 -15.722656 C 33.570312 -19 34.871094 -22.199219 36.671875 -25.148438 C 36.871094 -25.472656 37.097656 -25.648438 37.472656 -25.722656 C 38.996094 -26.046875 40.496094 -26.523438 41.796875 -27.445312 C 42.097656 -27.648438 42.320312 -27.695312 42.671875 -27.597656 C 47.09375 -26.347656 51.621094 -25.621094 56.246094 -25.597656 C 58.46875 -25.574219 60.667969 -25.648438 62.84375 -26.199219 C 64.042969 -26.496094 65.21875 -26.921875 66.117188 -27.847656 C 66.21875 -27.921875 66.417969 -27.972656 66.320312 -28.148438 C 66.242188 -28.320312 66.042969 -28.347656 65.867188 -28.273438 C 65.519531 -28.171875 65.117188 -28.097656 64.769531 -27.898438 C 63.792969 -27.296875 62.769531 -26.824219 61.617188 -26.597656 C 59.992188 -26.246094 58.34375 -26.148438 56.667969 -26.148438 C 52.84375 -26.097656 49.046875 -26.574219 45.320312 -27.421875 C 44.394531 -27.621094 43.496094 -27.871094 42.570312 -28.121094 C 42.644531 -28.222656 42.671875 -28.273438 42.722656 -28.347656 C 43.496094 -29.421875 43.046875 -30.398438 41.722656 -30.570312 C 40.621094 -30.722656 39.671875 -30.296875 38.847656 -29.648438 C 38.472656 -29.347656 38.171875 -29.296875 37.769531 -29.472656 C 37.695312 -29.496094 37.621094 -29.496094 37.570312 -29.523438 C 34.820312 -30.320312 32.070312 -30.945312 29.222656 -31.070312 C 25.699219 -31.222656 22.273438 -30.671875 18.921875 -29.648438 C 11.375 -27.324219 5.847656 -22.621094 2.324219 -15.597656 C 0.925781 -12.796875 0.476562 -9.847656 1.175781 -6.773438 C 1.851562 -3.648438 3.375 -0.949219 5.472656 1.425781 Z M 41.296875 -29.972656 C 41.644531 -30.097656 41.847656 -29.921875 41.921875 -29.621094 C 42.019531 -29.195312 41.847656 -28.847656 41.597656 -28.523438 C 41.519531 -28.445312 41.445312 -28.421875 41.347656 -28.472656 C 40.796875 -28.621094 40.246094 -28.796875 39.644531 -28.972656 C 40.171875 -29.445312 40.695312 -29.773438 41.296875 -29.972656 Z M 39.046875 -28.398438 C 39.121094 -28.472656 39.195312 -28.570312 39.371094 -28.523438 C 39.921875 -28.371094 40.496094 -28.195312 41.144531 -28.023438 C 40.046875 -27.121094 38.820312 -26.773438 37.546875 -26.421875 C 37.996094 -27.121094 38.496094 -27.773438 39.046875 -28.398438 Z M 3.523438 -15.824219 C 7.425781 -23.222656 13.449219 -27.820312 21.597656 -29.695312 C 23.796875 -30.195312 26.046875 -30.523438 28.296875 -30.546875 C 30.546875 -30.570312 32.746094 -30.148438 34.921875 -29.671875 C 35.921875 -29.445312 36.894531 -29.195312 37.921875 -28.898438 C 37.496094 -28.398438 37.097656 -27.945312 36.722656 -27.496094 C 36.570312 -27.324219 36.371094 -27.121094 36.269531 -26.898438 C 35.871094 -26.097656 35.195312 -25.871094 34.347656 -25.796875 C 32.195312 -25.597656 30.046875 -25.371094 27.898438 -25.121094 C 24.574219 -24.722656 21.398438 -23.871094 18.597656 -21.949219 C 15.449219 -19.796875 13.296875 -16.921875 12.375 -13.199219 C 12.023438 -11.824219 12.199219 -10.449219 12.574219 -9.097656 C 12.648438 -8.898438 12.75 -8.722656 12.824219 -8.523438 C 12.898438 -8.347656 13.074219 -8.25 13.25 -8.347656 C 13.398438 -8.425781 13.25 -8.550781 13.222656 -8.675781 C 12.847656 -10.648438 12.949219 -12.597656 13.699219 -14.472656 C 15.671875 -19.347656 19.296875 -22.398438 24.324219 -23.847656 C 26.597656 -24.496094 28.921875 -24.722656 31.273438 -24.921875 C 32.421875 -25.023438 33.570312 -25.148438 34.722656 -25.273438 C 34.847656 -25.273438 34.972656 -25.273438 35.148438 -25.296875 C 34.898438 -24.847656 34.671875 -24.449219 34.445312 -24.046875 C 33.070312 -21.722656 32.171875 -19.171875 31.222656 -16.648438 C 30.171875 -13.847656 29.371094 -10.925781 28.222656 -8.148438 C 26.921875 -5.023438 25.421875 -2.023438 23.273438 0.601562 C 21.097656 3.324219 18.273438 4.898438 14.796875 5.125 C 12.296875 5.273438 10.023438 4.523438 8.097656 2.925781 C 4.425781 -0.148438 2.226562 -4.050781 1.898438 -8.898438 C 1.75 -11.375 2.375 -13.671875 3.523438 -15.824219 Z M 3.523438 -15.824219 "/></g></g></g><g fill="#f3f0f8" fill-opacity="1"><g transform="translate(180.327233, 43.499995)"><g><path d="M 15.222656 -3.898438 C 13.824219 -3.175781 12.523438 -2.324219 11.347656 -1.273438 C 9.800781 0.101562 8.449219 1.675781 7.050781 3.199219 C 6.324219 4 5.550781 4.773438 4.597656 5.300781 C 4.074219 5.625 3.800781 5.472656 3.726562 4.898438 C 3.699219 4.722656 3.699219 4.550781 3.726562 4.375 C 3.773438 4.023438 3.851562 3.675781 3.949219 3.351562 C 4.398438 1.875 5.050781 0.476562 5.773438 -0.898438 C 6.449219 -2.226562 7.148438 -3.550781 7.824219 -4.875 C 8.125 -5.449219 8.347656 -6.097656 8.472656 -6.722656 C 8.648438 -7.5 8.300781 -7.898438 7.5 -7.898438 C 7.050781 -7.875 6.675781 -7.675781 6.300781 -7.449219 C 5.125 -6.675781 4.097656 -5.675781 3.074219 -4.722656 C 2.300781 -4 1.550781 -3.226562 0.648438 -2.601562 C 0.675781 -3.351562 0.851562 -4.074219 1.101562 -4.75 C 2.023438 -7.300781 3.074219 -9.800781 4.273438 -12.222656 C 5 -13.796875 5.824219 -15.296875 6.648438 -16.796875 C 8.273438 -19.746094 10.023438 -22.648438 11.875 -25.449219 C 12.324219 -26.121094 12.722656 -26.847656 13.097656 -27.570312 C 13.273438 -27.921875 13.199219 -28.046875 12.824219 -28.171875 C 12.375 -28.320312 12.046875 -28.222656 11.75 -27.796875 C 11.148438 -26.921875 10.550781 -26.074219 9.972656 -25.222656 C 7.898438 -22.074219 5.972656 -18.847656 4.25 -15.523438 C 2.800781 -12.671875 1.425781 -9.800781 0.25 -6.824219 C -0.273438 -5.523438 -0.699219 -4.199219 -0.75 -2.800781 C -0.800781 -1.976562 -0.375 -1.601562 0.425781 -1.675781 C 0.726562 -1.699219 0.976562 -1.824219 1.226562 -2 C 1.476562 -2.226562 1.726562 -2.425781 1.949219 -2.648438 C 3.125 -3.75 4.25 -4.898438 5.472656 -5.925781 C 6 -6.347656 6.523438 -6.800781 7.148438 -7.050781 C 7.273438 -6.875 7.199219 -6.722656 7.125 -6.574219 C 7 -6.25 6.847656 -5.898438 6.699219 -5.574219 C 6.148438 -4.324219 5.398438 -3.199219 4.800781 -2 C 4.050781 -0.574219 3.324219 0.824219 2.925781 2.375 C 2.726562 3.199219 2.523438 4.023438 2.75 4.898438 C 2.925781 5.597656 3.300781 5.898438 4.023438 5.898438 C 4.597656 5.925781 5.097656 5.699219 5.523438 5.347656 C 6.050781 4.972656 6.523438 4.550781 6.972656 4.097656 C 8.125 2.925781 9.273438 1.773438 10.425781 0.574219 C 12.046875 -1.074219 13.773438 -2.574219 15.796875 -3.699219 C 15.921875 -3.773438 16.097656 -3.824219 16.046875 -4.023438 C 15.648438 -4.097656 15.648438 -4.097656 15.222656 -3.898438 Z M 15.222656 -3.898438 "/></g></g></g><g fill="#f3f0f8" fill-opacity="1"><g transform="translate(195.674801, 43.499995)"><g><path d="M 1.75 -0.800781 C 1.800781 -0.273438 1.875 0.25 2.125 0.726562 C 2.976562 2.324219 4.675781 2.675781 6.097656 2.074219 C 8.972656 0.851562 14.375 -3.875 17.472656 -4.25 C 17.449219 -4.347656 17.449219 -4.398438 17.421875 -4.425781 C 16.574219 -5.375 8.898438 -0.101562 6.375 1.125 C 5.722656 1.449219 5.074219 1.726562 4.324219 1.726562 C 3.949219 1.699219 3.699219 1.550781 3.550781 1.199219 C 3.398438 0.851562 3.324219 0.476562 3.324219 0.0742188 C 3.300781 -0.824219 3.476562 -1.675781 3.824219 -2.523438 C 4.097656 -3.226562 4.523438 -3.851562 4.898438 -4.5 C 5.175781 -5.023438 5.125 -5.199219 4.597656 -5.449219 C 4.449219 -5.523438 4.300781 -5.625 4.148438 -5.574219 C 3.875 -5.472656 3.726562 -5.625 3.523438 -5.75 C 2.773438 -6.175781 2.023438 -6.273438 1.273438 -5.800781 C -0.523438 -4.675781 -1.351562 -2.976562 -1.300781 -0.898438 C -1.300781 -0.199219 -0.5 0.199219 0.148438 -0.101562 C 0.398438 -0.226562 0.625 -0.398438 0.800781 -0.601562 C 1.074219 -0.851562 1.351562 -1.125 1.648438 -1.425781 C 1.75 -1.175781 1.726562 -0.976562 1.75 -0.800781 Z M 0.351562 -1.101562 C 0.175781 -0.949219 -0.0234375 -0.824219 -0.300781 -0.625 C -0.300781 -1.175781 -0.199219 -1.574219 -0.0507812 -1.925781 C 0.398438 -3.074219 1.050781 -4.050781 2 -4.847656 C 2.175781 -5 2.398438 -5.097656 2.601562 -5.222656 C 2.726562 -5.300781 2.898438 -5.324219 3 -5.148438 C 3.101562 -5 3.199219 -4.875 3.074219 -4.675781 C 2.273438 -3.398438 1.5 -2.101562 0.351562 -1.101562 Z M 0.351562 -1.101562 "/></g></g></g><g fill="#f3f0f8" fill-opacity="1"><g transform="translate(212.547133, 43.499995)"><g><path d="M 2 -6.023438 C 1.675781 -6.300781 1.398438 -6.300781 1.074219 -6 C 0.949219 -5.875 0.824219 -5.75 0.699219 -5.625 C -0.824219 -3.574219 -2.023438 -1.398438 -2.273438 1.199219 C -2.375 1.875 -2.351562 2.550781 -2.199219 3.226562 C -2.074219 3.75 -1.851562 4.273438 -1.5 4.722656 C -0.800781 5.550781 -0.0234375 5.648438 0.875 5.074219 C 1.023438 4.972656 1.175781 4.824219 1.324219 4.699219 C 2.601562 3.625 3.726562 2.398438 4.875 1.199219 C 6.273438 -0.273438 7.800781 -1.523438 9.648438 -2.425781 C 10.699219 -2.925781 11.699219 -3.476562 12.796875 -3.875 C 12.898438 -3.898438 13 -3.925781 12.972656 -4.050781 C 12.972656 -4.148438 12.875 -4.199219 12.773438 -4.199219 C 12.574219 -4.222656 12.421875 -4.148438 12.273438 -4.074219 C 11.699219 -3.824219 11.125 -3.574219 10.574219 -3.300781 C 9.472656 -2.773438 8.324219 -2.300781 7.273438 -1.625 C 5.75 -0.699219 4.449219 0.523438 3.226562 1.824219 C 2.523438 2.523438 1.898438 3.300781 1.074219 3.851562 C 0.601562 4.175781 0.148438 4.5 -0.449219 4.523438 C -0.898438 4.550781 -1.023438 4.449219 -1.125 4.023438 C -1.25 3.5 -1.25 2.976562 -1.199219 2.449219 C -1 0.5 -0.25 -1.273438 0.75 -2.949219 C 1.199219 -3.699219 1.675781 -4.375 2.125 -5.097656 C 2.351562 -5.472656 2.300781 -5.773438 2 -6.023438 Z M 3.148438 -7.25 C 3.375 -7.175781 3.523438 -7.324219 3.5 -7.550781 C 3.5 -7.925781 3.074219 -8.300781 2.648438 -8.347656 C 2.425781 -8.375 2.300781 -8.222656 2.375 -8 C 2.5 -7.625 2.800781 -7.375 3.148438 -7.25 Z M 3.148438 -7.25 "/></g></g></g><g fill="#f3f0f8" fill-opacity="1"><g transform="translate(225.170137, 43.499995)"><g><path d="M 20.722656 -4.175781 C 20.898438 -4.347656 20.847656 -4.5 20.597656 -4.574219 C 20.371094 -4.675781 20.199219 -4.574219 20.023438 -4.472656 C 19.199219 -3.972656 18.449219 -3.375 17.722656 -2.75 C 16.722656 -1.898438 15.671875 -1.101562 14.472656 -0.5 C 12.347656 0.574219 10.125 1.425781 7.773438 1.875 C 6.273438 2.175781 4.75 2.324219 3.226562 2.148438 C 2.226562 2.023438 1.324219 1.75 0.476562 1.226562 C 0.300781 1.125 0.101562 1.050781 -0.0234375 0.824219 C 0.226562 0.726562 0.449219 0.625 0.675781 0.550781 C 1.175781 0.375 1.648438 0.175781 2.125 -0.0507812 C 3.476562 -0.75 4.773438 -1.574219 6.023438 -2.425781 C 7.847656 -3.675781 9.550781 -5.097656 11.175781 -6.574219 C 12.597656 -7.847656 13.847656 -9.324219 15.347656 -10.5 C 15.523438 -10.648438 15.472656 -10.800781 15.324219 -10.875 C 14.972656 -11.074219 14.625 -11.097656 14.273438 -10.875 C 14.023438 -10.699219 13.796875 -10.5 13.574219 -10.273438 C 12 -8.824219 10.523438 -7.273438 8.925781 -5.875 C 6.550781 -3.800781 4 -1.949219 1.148438 -0.550781 C 0.574219 -0.273438 -0.0234375 0.0234375 -0.699219 0.175781 C -0.699219 -0.0742188 -0.601562 -0.226562 -0.5 -0.398438 C 0.523438 -2.625 1.574219 -4.824219 2.574219 -7.074219 C 3.851562 -9.925781 5.097656 -12.824219 6.550781 -15.625 C 7.800781 -18.074219 9.199219 -20.421875 10.875 -22.597656 C 11.675781 -23.648438 12.449219 -24.746094 13.796875 -25.199219 C 13.671875 -25.421875 13.5 -25.472656 13.273438 -25.523438 C 12.921875 -25.574219 12.625 -25.449219 12.324219 -25.296875 C 11.375 -24.773438 10.648438 -23.996094 9.972656 -23.199219 C 7.75 -20.523438 6.050781 -17.546875 4.550781 -14.449219 C 3.5 -12.347656 2.550781 -10.199219 1.601562 -8.050781 C 0.699219 -6.023438 -0.25 -4.050781 -1.175781 -2.050781 C -1.375 -1.601562 -1.601562 -1.175781 -1.800781 -0.726562 C -2.023438 -0.300781 -2.023438 -0.300781 -2.449219 -0.476562 C -2.800781 -0.601562 -3.148438 -0.699219 -3.523438 -0.75 C -3.949219 -0.824219 -4.398438 -0.800781 -4.773438 -0.574219 C -5.398438 -0.199219 -5.398438 0.523438 -4.800781 0.898438 C -4.472656 1.101562 -4.125 1.199219 -3.773438 1.25 C -3.5 1.273438 -3.226562 1.324219 -2.976562 1.351562 C -2.925781 1.5 -2.976562 1.601562 -3.023438 1.675781 C -4 3.550781 -5 5.398438 -6.175781 7.148438 C -6.898438 8.25 -7.699219 9.347656 -8.675781 10.273438 C -9.074219 10.675781 -9.550781 11.023438 -10.097656 11.199219 C -10.222656 11.25 -10.472656 11.148438 -10.472656 11.375 C -10.472656 11.574219 -10.25 11.648438 -10.097656 11.699219 C -10.023438 11.722656 -9.949219 11.722656 -9.875 11.722656 C -9.300781 11.722656 -8.699219 11.625 -8.175781 11.324219 C -7.425781 10.875 -6.847656 10.199219 -6.300781 9.523438 C -4.824219 7.625 -3.550781 5.574219 -2.449219 3.398438 C -2.101562 2.726562 -1.726562 2.050781 -1.351562 1.375 C -1.175781 1.023438 -1.023438 1 -0.648438 1.226562 C -0.625 1.25 -0.574219 1.273438 -0.523438 1.300781 C 0.449219 1.898438 1.449219 2.425781 2.574219 2.601562 C 4.675781 2.949219 6.75 2.851562 8.800781 2.375 C 10.300781 2.023438 11.75 1.476562 13.148438 0.824219 C 14.125 0.375 15.125 -0.0507812 16.074219 -0.601562 C 17.523438 -1.425781 18.773438 -2.523438 20.074219 -3.574219 C 20.296875 -3.75 20.523438 -3.949219 20.722656 -4.175781 Z M -2.351562 0.300781 C -2.398438 0.5 -2.5 0.648438 -2.726562 0.699219 C -3.023438 0.75 -3.351562 0.75 -3.648438 0.726562 C -3.800781 0.726562 -3.949219 0.726562 -4.097656 0.699219 C -4.398438 0.625 -4.5 0.449219 -4.375 0.148438 C -4.25 -0.175781 -3.800781 -0.375 -3.375 -0.273438 C -3.101562 -0.199219 -2.824219 -0.125 -2.601562 0.0234375 C -2.5 0.101562 -2.324219 0.125 -2.351562 0.300781 Z M -2.351562 0.300781 "/></g></g></g><g fill="#f3f0f8" fill-opacity="1"><g transform="translate(245.166969, 43.499995)"><g><path d="M 15.222656 -3.898438 C 13.824219 -3.175781 12.523438 -2.324219 11.347656 -1.273438 C 9.800781 0.101562 8.449219 1.675781 7.050781 3.199219 C 6.324219 4 5.550781 4.773438 4.597656 5.300781 C 4.074219 5.625 3.800781 5.472656 3.726562 4.898438 C 3.699219 4.722656 3.699219 4.550781 3.726562 4.375 C 3.773438 4.023438 3.851562 3.675781 3.949219 3.351562 C 4.398438 1.875 5.050781 0.476562 5.773438 -0.898438 C 6.449219 -2.226562 7.148438 -3.550781 7.824219 -4.875 C 8.125 -5.449219 8.347656 -6.097656 8.472656 -6.722656 C 8.648438 -7.5 8.300781 -7.898438 7.5 -7.898438 C 7.050781 -7.875 6.675781 -7.675781 6.300781 -7.449219 C 5.125 -6.675781 4.097656 -5.675781 3.074219 -4.722656 C 2.300781 -4 1.550781 -3.226562 0.648438 -2.601562 C 0.675781 -3.351562 0.851562 -4.074219 1.101562 -4.75 C 2.023438 -7.300781 3.074219 -9.800781 4.273438 -12.222656 C 5 -13.796875 5.824219 -15.296875 6.648438 -16.796875 C 8.273438 -19.746094 10.023438 -22.648438 11.875 -25.449219 C 12.324219 -26.121094 12.722656 -26.847656 13.097656 -27.570312 C 13.273438 -27.921875 13.199219 -28.046875 12.824219 -28.171875 C 12.375 -28.320312 12.046875 -28.222656 11.75 -27.796875 C 11.148438 -26.921875 10.550781 -26.074219 9.972656 -25.222656 C 7.898438 -22.074219 5.972656 -18.847656 4.25 -15.523438 C 2.800781 -12.671875 1.425781 -9.800781 0.25 -6.824219 C -0.273438 -5.523438 -0.699219 -4.199219 -0.75 -2.800781 C -0.800781 -1.976562 -0.375 -1.601562 0.425781 -1.675781 C 0.726562 -1.699219 0.976562 -1.824219 1.226562 -2 C 1.476562 -2.226562 1.726562 -2.425781 1.949219 -2.648438 C 3.125 -3.75 4.25 -4.898438 5.472656 -5.925781 C 6 -6.347656 6.523438 -6.800781 7.148438 -7.050781 C 7.273438 -6.875 7.199219 -6.722656 7.125 -6.574219 C 7 -6.25 6.847656 -5.898438 6.699219 -5.574219 C 6.148438 -4.324219 5.398438 -3.199219 4.800781 -2 C 4.050781 -0.574219 3.324219 0.824219 2.925781 2.375 C 2.726562 3.199219 2.523438 4.023438 2.75 4.898438 C 2.925781 5.597656 3.300781 5.898438 4.023438 5.898438 C 4.597656 5.925781 5.097656 5.699219 5.523438 5.347656 C 6.050781 4.972656 6.523438 4.550781 6.972656 4.097656 C 8.125 2.925781 9.273438 1.773438 10.425781 0.574219 C 12.046875 -1.074219 13.773438 -2.574219 15.796875 -3.699219 C 15.921875 -3.773438 16.097656 -3.824219 16.046875 -4.023438 C 15.648438 -4.097656 15.648438 -4.097656 15.222656 -3.898438 Z M 15.222656 -3.898438 "/></g></g></g></svg>